<?xml version="1.0" standalone="no"?>
<!DOCTYPE svg PUBLIC "-//W3C//DTD SVG 20010904//EN"
 "http://www.w3.org/TR/2001/REC-SVG-20010904/DTD/svg10.dtd">
<svg version="1.0" xmlns="http://www.w3.org/2000/svg"
 width="249.000000pt" height="115.000000pt" viewBox="0 0 249.000000 115.000000"
 preserveAspectRatio="xMidYMid meet">

<g transform="translate(0.000000,115.000000) scale(0.100000,-0.100000)"
fill="#000000" stroke="none">
<path d="M1181 1114 c-29 -13 -81 -44 -115 -68 -39 -28 -96 -55 -161 -76 -263
-87 -410 -197 -539 -405 -10 -16 -34 -48 -52 -69 -40 -47 -43 -73 -10 -82 23
-5 84 7 135 28 14 6 28 12 31 13 3 1 12 4 20 7 8 4 67 25 130 48 l114 42 61
-30 c87 -45 225 -56 225 -19 0 6 -18 32 -40 56 -22 25 -39 50 -37 55 7 24 137
55 272 67 172 16 359 1 476 -38 65 -21 93 -39 198 -124 177 -145 277 -195 310
-155 9 11 2 24 -32 65 -57 66 -94 141 -111 222 l-13 64 -49 -1 c-27 0 -65 -7
-85 -16 l-35 -17 -130 91 c-136 95 -262 161 -381 199 l-71 22 25 48 c13 26 23
58 21 71 -3 20 -9 23 -53 25 -35 1 -66 -5 -104 -23z"/>
<path d="M570 377 c-19 -9 -26 -22 -28 -50 -2 -21 2 -45 9 -53 14 -17 80 -19
97 -2 9 9 12 9 12 -1 0 -8 11 -11 33 -9 45 4 49 38 7 68 -34 24 -30 45 7 35
16 -4 22 -2 18 5 -10 16 -55 12 -62 -6 -4 -12 5 -26 28 -45 28 -23 32 -30 21
-41 -10 -10 -16 -10 -32 0 -15 9 -26 10 -40 2 -25 -14 -63 -13 -78 2 -17 17
-15 63 3 78 9 8 29 10 52 7 20 -4 32 -2 27 2 -18 17 -49 20 -74 8z"/>
<path d="M770 377 c-19 -9 -26 -22 -28 -50 -2 -21 2 -45 9 -53 13 -16 85 -19
94 -5 3 6 -9 7 -30 4 -43 -7 -65 9 -65 47 0 38 22 54 67 47 20 -4 32 -2 27 2
-18 17 -49 20 -74 8z"/>
<path d="M1291 343 c-7 -26 -14 -56 -17 -65 -3 -10 -1 -18 4 -18 5 0 14 19 19
43 l10 42 20 -45 20 -45 20 45 20 45 12 -44 c17 -58 25 -46 10 15 -17 69 -23
72 -44 18 l-18 -47 -19 49 c-11 27 -21 50 -23 52 -1 1 -8 -19 -14 -45z"/>
<path d="M1992 327 l-2 -68 33 3 c28 3 32 6 32 33 0 25 -4 31 -27 33 -22 3
-28 9 -31 35 -2 18 -5 1 -5 -36z m56 -30 c4 -20 -25 -34 -40 -19 -15 15 -1 44
19 40 10 -2 19 -11 21 -21z"/>
<path d="M444 325 c1 -58 2 -60 30 -63 16 -2 32 2 37 10 12 18 11 108 -1 108
-5 0 -10 -23 -10 -50 0 -36 -4 -52 -15 -57 -23 -8 -29 2 -36 60 l-7 52 2 -60z"/>
<path d="M912 323 c-2 -63 -2 -63 26 -62 22 1 23 2 5 6 -19 4 -23 12 -26 61
l-3 57 -2 -62z"/>
<path d="M1842 323 c-2 -63 -2 -63 26 -62 22 1 23 2 5 6 -19 4 -23 12 -26 61
l-3 57 -2 -62z"/>
<path d="M970 315 c-20 -24 0 -50 36 -50 26 0 29 4 29 30 0 25 -4 31 -26 33
-15 2 -31 -4 -39 -13z m53 -7 c6 -19 -3 -38 -18 -38 -18 0 -28 17 -21 35 7 18
33 20 39 3z"/>
<path d="M1061 293 c1 -37 2 -37 8 -8 3 17 13 30 21 30 8 0 18 -13 21 -30 5
-22 7 -24 8 -8 2 35 -10 53 -35 53 -21 0 -24 -4 -23 -37z"/>
<path d="M1139 314 c-16 -20 -1 -48 30 -52 11 -2 21 -8 21 -14 0 -6 -11 -8
-25 -6 -27 6 -34 -6 -9 -16 32 -12 54 12 54 59 0 43 -1 45 -29 45 -16 0 -34
-7 -42 -16z m54 -6 c6 -19 -3 -38 -18 -38 -18 0 -28 17 -21 35 7 18 33 20 39
3z"/>
<path d="M1439 314 c-19 -23 1 -48 40 -52 30 -3 31 -2 31 32 0 33 -2 36 -29
36 -16 0 -34 -7 -42 -16z m54 -6 c6 -19 -3 -38 -18 -38 -18 0 -28 17 -21 35 7
18 33 20 39 3z"/>
<path d="M1532 293 c1 -37 1 -37 5 -6 3 19 11 34 21 36 12 3 10 5 -5 6 -20 1
-23 -3 -21 -36z"/>
<path d="M1593 295 c0 -22 2 -30 4 -17 2 12 2 30 0 40 -3 9 -5 -1 -4 -23z"/>
<path d="M1621 293 c1 -37 2 -37 8 -8 3 17 13 30 21 30 8 0 18 -13 21 -30 5
-22 7 -24 8 -8 2 35 -10 53 -35 53 -21 0 -24 -4 -23 -37z"/>
<path d="M1700 315 c-25 -30 25 -74 53 -46 7 7 4 8 -10 5 -12 -3 -24 -1 -27 5
-5 7 4 11 24 11 25 0 31 4 28 18 -4 23 -51 28 -68 7z m47 -1 c-3 -3 -12 -4
-19 -1 -8 3 -5 6 6 6 11 1 17 -2 13 -5z"/>
<path d="M1899 314 c-19 -23 1 -48 40 -52 30 -3 31 -2 31 32 0 33 -2 36 -29
36 -16 0 -34 -7 -42 -16z m54 -6 c6 -19 -3 -38 -18 -38 -18 0 -28 17 -21 35 7
18 33 20 39 3z"/>
<path d="M70 200 c0 -7 395 -10 1165 -10 770 0 1165 3 1165 10 0 7 -395 10
-1165 10 -770 0 -1165 -3 -1165 -10z"/>
<path d="M21 123 c-7 -26 -14 -56 -17 -65 -3 -10 -1 -18 4 -18 5 0 14 19 19
43 l10 42 20 -45 20 -45 20 45 20 45 12 -44 c17 -58 25 -46 10 15 -17 69 -23
72 -44 18 l-18 -47 -19 49 c-11 27 -21 50 -23 52 -1 1 -8 -19 -14 -45z"/>
<path d="M581 123 c-7 -26 -14 -56 -17 -65 -3 -10 -1 -18 4 -18 5 0 14 19 19
43 l10 42 20 -45 20 -45 20 45 20 45 12 -44 c17 -58 25 -46 10 15 -17 69 -23
72 -44 18 l-18 -47 -19 49 c-11 27 -21 50 -23 52 -1 1 -8 -19 -14 -45z"/>
<path d="M1133 105 c0 -38 2 -53 4 -32 2 20 2 52 0 70 -2 17 -4 1 -4 -38z"/>
<path d="M1630 141 c0 -25 -4 -30 -27 -33 -24 -3 -28 -8 -28 -33 0 -27 4 -30
33 -33 l32 -3 0 65 c0 36 -2 66 -5 66 -3 0 -5 -13 -5 -29z m-2 -64 c4 -20 -25
-34 -40 -19 -15 15 -1 44 19 40 10 -2 19 -11 21 -21z"/>
<path d="M2432 105 c0 -38 3 -62 7 -52 6 17 8 17 20 3 7 -9 18 -16 24 -16 5 0
2 9 -8 20 -14 16 -16 23 -7 32 7 7 12 17 12 22 0 6 -5 5 -12 -2 -20 -20 -27
-14 -31 26 -2 20 -4 6 -5 -33z"/>
<path d="M1223 144 c-4 -12 5 -26 28 -45 28 -23 32 -30 21 -41 -10 -10 -17
-10 -32 0 -26 16 -31 15 -23 -4 4 -10 16 -14 37 -12 44 4 47 38 6 68 -34 24
-30 45 7 35 16 -4 22 -2 18 5 -10 16 -55 12 -62 -6z"/>
<path d="M1912 100 c1 -60 2 -61 6 -15 l4 50 44 -50 44 -50 -2 65 c-1 56 -2
59 -5 17 l-4 -48 -44 48 -44 48 1 -65z"/>
<path d="M1298 123 c-2 -10 -1 -34 3 -53 l6 -35 2 32 c0 17 5 33 10 35 5 2 4
11 -3 21 -13 17 -14 17 -18 0z"/>
<path d="M2118 123 c-2 -10 -1 -34 3 -53 l6 -35 2 32 c0 17 5 33 10 35 5 2 4
11 -3 21 -13 17 -14 17 -18 0z"/>
<path d="M169 94 c-19 -23 1 -48 40 -52 30 -3 31 -2 31 32 0 33 -2 36 -29 36
-16 0 -34 -7 -42 -16z m54 -6 c6 -19 -3 -38 -18 -38 -18 0 -28 17 -21 35 7 18
33 20 39 3z"/>
<path d="M262 73 c1 -37 1 -37 5 -6 3 19 11 34 21 36 12 3 10 5 -5 6 -20 1
-23 -3 -21 -36z"/>
<path d="M323 75 c0 -22 2 -30 4 -17 2 12 2 30 0 40 -3 9 -5 -1 -4 -23z"/>
<path d="M351 73 c1 -37 2 -37 8 -8 3 17 13 30 21 30 8 0 18 -13 21 -30 5 -22
7 -24 8 -8 2 35 -10 53 -35 53 -21 0 -24 -4 -23 -37z"/>
<path d="M430 95 c-25 -30 25 -74 53 -46 7 7 4 8 -10 5 -12 -3 -24 -1 -27 5
-5 7 4 11 24 11 25 0 31 4 28 18 -4 23 -51 28 -68 7z m47 -1 c-3 -3 -12 -4
-19 -1 -8 3 -5 6 6 6 11 1 17 -2 13 -5z"/>
<path d="M729 94 c-19 -23 1 -48 40 -52 30 -3 31 -2 31 32 0 33 -2 36 -29 36
-16 0 -34 -7 -42 -16z m54 -6 c6 -19 -3 -38 -18 -38 -18 0 -28 17 -21 35 7 18
33 20 39 3z"/>
<path d="M822 73 c1 -38 1 -38 5 -5 5 40 25 38 34 -4 l7 -29 1 33 c1 41 23 39
33 -4 6 -27 6 -27 5 6 -2 34 -4 35 -44 38 l-43 3 2 -38z"/>
<path d="M932 73 c1 -38 1 -38 5 -5 5 40 25 38 34 -4 l7 -29 1 33 c1 41 23 39
33 -4 6 -27 6 -27 5 6 -2 34 -4 35 -44 38 l-43 3 2 -38z"/>
<path d="M1039 94 c-19 -23 1 -48 40 -52 30 -3 31 -2 31 32 0 33 -2 36 -29 36
-16 0 -34 -7 -42 -16z m54 -6 c6 -19 -3 -38 -18 -38 -18 0 -28 17 -21 35 7 18
33 20 39 3z"/>
<path d="M1352 73 c1 -37 1 -37 5 -6 3 19 11 34 21 36 12 3 10 5 -5 6 -20 1
-23 -3 -21 -36z"/>
<path d="M1399 94 c-19 -23 1 -48 40 -52 30 -3 31 -2 31 32 0 33 -2 36 -29 36
-16 0 -34 -7 -42 -16z m54 -6 c6 -19 -3 -38 -18 -38 -18 0 -28 17 -21 35 7 18
33 20 39 3z"/>
<path d="M1491 73 c1 -37 2 -37 8 -8 3 17 13 30 21 30 8 0 18 -13 21 -30 5
-22 7 -24 8 -8 2 35 -10 53 -35 53 -21 0 -24 -4 -23 -37z"/>
<path d="M1663 75 c0 -22 2 -30 4 -17 2 12 2 30 0 40 -3 9 -5 -1 -4 -23z"/>
<path d="M1691 73 c1 -37 2 -37 8 -8 3 17 13 30 21 30 8 0 18 -13 21 -30 5
-22 7 -24 8 -8 2 35 -10 53 -35 53 -21 0 -24 -4 -23 -37z"/>
<path d="M1769 94 c-16 -20 -1 -48 30 -52 11 -2 21 -8 21 -14 0 -6 -11 -8 -25
-6 -27 6 -34 -6 -9 -16 32 -12 54 12 54 59 0 43 -1 45 -29 45 -16 0 -34 -7
-42 -16z m54 -6 c6 -19 -3 -38 -18 -38 -18 0 -28 17 -21 35 7 18 33 20 39 3z"/>
<path d="M2040 95 c-25 -30 25 -74 53 -46 7 7 4 8 -10 5 -12 -3 -24 -1 -27 5
-5 7 4 11 24 11 25 0 31 4 28 18 -4 23 -51 28 -68 7z m47 -1 c-3 -3 -12 -4
-19 -1 -8 3 -5 6 6 6 11 1 17 -2 13 -5z"/>
<path d="M2176 78 c22 -44 22 -44 33 -17 l10 24 7 -22 c8 -29 21 -29 29 -2 l7
21 15 -22 c10 -14 23 -20 41 -18 23 2 27 8 27 33 0 24 -5 31 -23 33 -13 2 -29
-1 -37 -8 -10 -8 -14 -8 -18 2 -3 8 -9 4 -15 -12 l-11 -25 -7 23 c-3 12 -10
22 -14 22 -5 0 -12 -10 -16 -22 l-7 -23 -10 23 c-6 12 -14 22 -19 22 -5 0 -1
-15 8 -32z m157 10 c6 -19 -3 -38 -18 -38 -18 0 -28 17 -21 35 7 18 33 20 39
3z"/>
<path d="M2372 73 c1 -37 1 -37 5 -6 3 19 11 34 21 36 12 3 10 5 -5 6 -20 1
-23 -3 -21 -36z"/>
</g>
</svg>
