<?xml version="1.0" encoding="iso-8859-1"?>
<!-- Generator: Adobe Illustrator 19.0.0, SVG Export Plug-In . SVG Version: 6.00 Build 0)  -->
<svg version="1.1" id="Layer_1" xmlns="http://www.w3.org/2000/svg" xmlns:xlink="http://www.w3.org/1999/xlink" x="0px" y="0px"
	 viewBox="0 0 460 460" style="enable-background:new 0 0 460 460;" xml:space="preserve">
<g id="XMLID_2532_">
	<path id="XMLID_2166_" style="fill:#594D50;" d="M460,385c0,8.284-6.716,15-15,15H343.25v-30H445C453.284,370,460,376.716,460,385z
		"/>
	<path id="XMLID_2181_" style="fill:#6D5C61;" d="M50,370v30H0l0,0c0-16.569,13.431-30,30-30H50z"/>
	<path id="XMLID_2186_" style="fill:#594D50;" d="M80,345v40c0,8.284-6.716,15-15,15H50H20c16.569,0,30-13.431,30-30v-25
		c0-8.284,6.716-15,15-15S80,336.716,80,345z"/>
	<path id="XMLID_2188_" style="fill:#A19495;" d="M410,370v30H150l0,0c-40.127,0-76.574-15.756-103.491-41.42
		c-1.737-1.656-3.433-3.353-5.089-5.089C15.756,326.574,0,290.127,0,250l0,0v-20v-95c0-41.421,33.579-75,75-75l0,0
		c41.421,0,75,33.579,75,75v65c0,16.569,13.431,30,30,30h27.868c39.782,0,77.936,15.803,106.066,43.934L410,370z"/>
	<path id="XMLID_2190_" style="fill:#847779;" d="M410,370v30H150l0,0c-40.127,0-76.574-15.756-103.491-41.42
		c-1.737-1.656-3.433-3.353-5.089-5.089C15.756,326.574,0,290.127,0,250l0,0v-20v-70c0,40.127,15.756,76.574,41.42,103.491
		c1.656,1.737,3.353,3.433,5.089,5.089C73.426,294.244,109.873,310,150,310l0,0h115.147C319.478,310,371.583,331.583,410,370
		L410,370z"/>
	<path id="XMLID_2173_" style="fill:#6D5C61;" d="M180,400L180,400h-50v-30h20C166.569,370,180,383.431,180,400z"/>
	<path id="XMLID_1400_" style="fill:#594D50;" d="M160,400h-30h-15c-8.284,0-15-6.716-15-15v-40c0-8.284,6.716-15,15-15
		s15,6.716,15,15v25C130,386.569,143.431,400,160,400z"/>
	<path id="XMLID_2010_" style="fill:#B7A5A7;" d="M95,130H80c-2.761,0-5,2.239-5,5c0-2.761-2.239-5-5-5H55c-11.046,0-20,8.954-20,20
		s8.954,20,20,20s20-8.954,20-20c0,11.046,8.954,20,20,20s20-8.954,20-20S106.046,130,95,130z"/>
	<path id="XMLID_2009_" style="fill:#594D50;" d="M75,143.333c7.364,0,13.333-5.97,13.333-13.333H61.667
		C61.667,137.364,67.636,143.333,75,143.333z"/>
	<path id="XMLID_2006_" style="fill:#B7A5A7;" d="M40,105c0-8.284,6.716-15,15-15s15,6.716,15,15s-6.716,15-15,15S40,113.284,40,105
		z"/>
	<path id="XMLID_2007_" style="fill:#B7A5A7;" d="M95,120c8.284,0,15-6.716,15-15s-6.716-15-15-15s-15,6.716-15,15
		S86.716,120,95,120z"/>
	<path id="XMLID_2003_" style="fill:#594D50;" d="M60,105c0,2.761-2.239,5-5,5s-5-2.239-5-5s2.239-5,5-5S60,102.239,60,105z"/>
	<path id="XMLID_2005_" style="fill:#594D50;" d="M95,100c-2.761,0-5,2.239-5,5s2.239,5,5,5s5-2.239,5-5S97.761,100,95,100z"/>
</g>
<g>
</g>
<g>
</g>
<g>
</g>
<g>
</g>
<g>
</g>
<g>
</g>
<g>
</g>
<g>
</g>
<g>
</g>
<g>
</g>
<g>
</g>
<g>
</g>
<g>
</g>
<g>
</g>
<g>
</g>
</svg>
