<?xml version="1.0" encoding="iso-8859-1"?>
<!-- Generator: Adobe Illustrator 16.0.0, SVG Export Plug-In . SVG Version: 6.00 Build 0)  -->
<!DOCTYPE svg PUBLIC "-//W3C//DTD SVG 1.1//EN" "http://www.w3.org/Graphics/SVG/1.1/DTD/svg11.dtd">
<svg version="1.1" id="Capa_1" xmlns="http://www.w3.org/2000/svg" xmlns:xlink="http://www.w3.org/1999/xlink" x="0px" y="0px"
	 width="150.949px" height="150.949px" viewBox="0 0 150.949 150.949" style="enable-background:new 0 0 150.949 150.949;"
	 xml:space="preserve">
<g>
	<g>
		<path d="M75.469,0C40.858,0,12.717,28.153,12.717,62.764c0,53.441,58.724,86.408,61.211,87.797
			c0.487,0.268,1.017,0.389,1.541,0.389c0.6,0,1.19-0.158,1.702-0.505c2.493-1.595,61.062-39.622,61.062-87.681
			C138.232,28.153,110.083,0,75.469,0z M75.356,144.021c-9.472-5.724-56.297-36.341-56.297-81.263
			c0-31.101,25.31-56.404,56.41-56.404s56.413,25.304,56.413,56.404C131.882,103.113,84.709,137.566,75.356,144.021z"/>
		<path d="M101.411,81.704c-1.753,0-3.185,1.425-3.185,3.179c0,5.395-4.378,9.791-9.772,9.791c-5.036,0-9.027-3.849-9.582-8.707
			L91.06,71.139c0.78-0.95,0.944-2.265,0.408-3.379c-0.523-1.111-1.65-1.82-2.874-1.82H62.337c-1.224,0-2.338,0.703-2.862,1.82
			c-0.536,1.108-0.381,2.424,0.405,3.379l12.172,14.828c-0.557,4.858-4.552,8.707-9.566,8.707c-5.401,0-9.794-4.396-9.794-9.791
			c0-1.754-1.428-3.179-3.182-3.179c-1.738,0-3.179,1.425-3.179,3.179c0,8.902,7.249,16.148,16.155,16.148
			c5.45,0,10.038-2.898,12.97-7.052c2.929,4.153,7.529,7.052,12.985,7.052c8.902,0,16.137-7.246,16.137-16.148
			C104.59,83.129,103.159,81.704,101.411,81.704z"/>
		<path d="M92.851,36.806c3.507,0,6.351,2.847,6.351,6.354c0,3.51-2.844,6.354-6.351,6.354c-3.514,0-6.357-2.844-6.357-6.354
			C86.493,39.652,89.337,36.806,92.851,36.806z"/>
		<circle cx="58.103" cy="43.16" r="6.354"/>
	</g>
</g>
<g>
</g>
<g>
</g>
<g>
</g>
<g>
</g>
<g>
</g>
<g>
</g>
<g>
</g>
<g>
</g>
<g>
</g>
<g>
</g>
<g>
</g>
<g>
</g>
<g>
</g>
<g>
</g>
<g>
</g>
</svg>
