<?xml version="1.0" encoding="iso-8859-1"?>
<!-- Generator: Adobe Illustrator 19.0.0, SVG Export Plug-In . SVG Version: 6.00 Build 0)  -->
<svg version="1.1" id="Layer_1" xmlns="http://www.w3.org/2000/svg" xmlns:xlink="http://www.w3.org/1999/xlink" x="0px" y="0px"
	 viewBox="0 0 512 512" style="enable-background:new 0 0 512 512;" xml:space="preserve">
<path style="fill:#495577;" d="M101.369,254.779c-32.743,26.975-59.464,62.651-59.464,107.222
	c-0.388-11.391-0.485-24.152-0.254-38.439C43.044,236.856,0,189.256,0,189.256S63.087,197.69,101.369,254.779z"/>
<path style="fill:#3E81C8;" d="M310.25,456.475c-43.238,7.877-151.065,22.043-200.217,3.26
	c-34.949-13.354-68.129-45.455-68.129-102.581c0-115.123,178.222-170.855,178.222-170.855
	c-39.945,49.157-25.646,81.007-55.808,115.351c-4.755,5.414-23.349,19.944-25.6,22.181c-6.048,6.012-9.795,14.339-9.795,23.543
	c0,18.335,14.869,33.192,33.204,33.192c10.213,0,21.604-4.474,31.278-9.435c9.674-4.961,27.119-14.974,42.141-27.319
	c14.664-12.05,24.052-24.554,28.143-29.665c40.196-50.291,34.913-112.481,30.635-165.692
	c-4.241-52.969,30.659-101.841,82.634-112.857c25.654-5.429,46.376,0.473,60.967,8.059c11.682,6.059,12.312,21.522,2.242,29.993
	c-88.717,74.624,45.528,156.397,45.528,223.641C490.205,396.465,417.205,436.989,310.25,456.475z"/>
<g>
	<path style="fill:#495577;" d="M512,478.507c0,0-54.051-19.544-64.511-140.975c0-33.703-27.322-61.025-61.025-61.025
		s-61.025,27.322-61.025,61.025c0,13.12,4.155,25.264,11.201,35.215C336.641,372.748,383.85,479.379,512,478.507z"/>
	<circle style="fill:#495577;" cx="379.397" cy="76.247" r="9.695"/>
</g>
<g>
</g>
<g>
</g>
<g>
</g>
<g>
</g>
<g>
</g>
<g>
</g>
<g>
</g>
<g>
</g>
<g>
</g>
<g>
</g>
<g>
</g>
<g>
</g>
<g>
</g>
<g>
</g>
<g>
</g>
</svg>
